<?xml version="1.0" encoding="utf-8"?>
<!-- Generator: Adobe Illustrator 22.0.0, SVG Export Plug-In . SVG Version: 6.00 Build 0)  -->
<svg version="1.1" xmlns="http://www.w3.org/2000/svg" xmlns:xlink="http://www.w3.org/1999/xlink" x="0px" y="0px"
	 viewBox="0 0 256 256" style="enable-background:new 0 0 256 256;" xml:space="preserve">
<style type="text/css">
	.st0{display:none;}
	.st1{display:inline;}
	.st2{fill:none;stroke:#6B1D1D;stroke-width:0.5;stroke-miterlimit:10;}
	.st3{fill:#3A312A;}
	.st4{fill:#87796F;}
	.st5{fill:#D5DE58;}
	.st6{fill:#695B51;}
	.st7{fill:#FCE8CB;}
	.st8{fill:#F16C7A;}
	.st9{fill:#8AC6DD;}
	.st10{fill:#DECAAD;}
	.st11{fill:#D6DF58;}
	.st12{fill-rule:evenodd;clip-rule:evenodd;fill:#FCE8CB;}
	.st13{fill:#F5978A;}
	.st14{fill:#D7E057;}
	.st15{fill-rule:evenodd;clip-rule:evenodd;fill:#87796F;}
	.st16{fill:#6CA8BF;}
	.st17{fill:#B9C239;}
	.st18{fill:#D34E5C;}
	.st19{fill:#FAE6CA;}
	.st20{fill:#F8E4C8;}
	.st21{fill:#8AC5DC;}
	.st22{fill:#EF6D7A;}
	.st23{fill:#EB6E7A;}
	.st24{fill:#89C4DB;}
	.st25{fill-rule:evenodd;clip-rule:evenodd;fill:#F16C7A;}
	.st26{fill:#F7E3C7;}
	.st27{fill:#F6E2C6;}
	.st28{fill:#ED6E7A;}
	.st29{fill:#8AC3DA;}
	.st30{fill:#D5DC57;}
	.st31{fill-rule:evenodd;clip-rule:evenodd;fill:#D7E057;}
	.st32{fill-rule:evenodd;clip-rule:evenodd;fill:#F8E4C8;}
	.st33{fill:#D4DB56;}
	.st34{fill:#F59689;}
	.st35{fill:#DDC9AC;}
	.st36{fill:#D24E5C;}
	.st37{fill:#6A5C52;}
	.st38{fill:#6CA6BE;}
	.st39{fill:#B8C136;}
	.st40{fill-rule:evenodd;clip-rule:evenodd;fill:#FAE6CA;}
</style>
<g id="Layer_2" class="st0">
	<g class="st1">
		<g>
			<line class="st2" x1="0" y1="4.829" x2="256" y2="4.829"/>
			<line class="st2" x1="0" y1="16.56" x2="256" y2="16.56"/>
			<line class="st2" x1="0" y1="28.29" x2="256" y2="28.29"/>
			<line class="st2" x1="0" y1="40.021" x2="256" y2="40.021"/>
			<line class="st2" x1="0" y1="51.751" x2="256" y2="51.751"/>
			<line class="st2" x1="0" y1="63.482" x2="256" y2="63.482"/>
			<line class="st2" x1="0" y1="75.213" x2="256" y2="75.213"/>
			<line class="st2" x1="0" y1="86.943" x2="256" y2="86.943"/>
			<line class="st2" x1="0" y1="98.674" x2="256" y2="98.674"/>
			<line class="st2" x1="0" y1="110.404" x2="256" y2="110.404"/>
			<line class="st2" x1="0" y1="122.135" x2="256" y2="122.135"/>
			<line class="st2" x1="0" y1="133.865" x2="256" y2="133.865"/>
			<line class="st2" x1="0" y1="145.596" x2="256" y2="145.596"/>
			<line class="st2" x1="0" y1="157.326" x2="256" y2="157.326"/>
			<line class="st2" x1="0" y1="169.057" x2="256" y2="169.057"/>
			<line class="st2" x1="0" y1="180.788" x2="256" y2="180.788"/>
			<line class="st2" x1="0" y1="192.518" x2="256" y2="192.518"/>
			<line class="st2" x1="0" y1="204.249" x2="256" y2="204.249"/>
			<line class="st2" x1="0" y1="215.979" x2="256" y2="215.979"/>
			<line class="st2" x1="0" y1="227.71" x2="256" y2="227.71"/>
			<line class="st2" x1="0" y1="239.44" x2="256" y2="239.44"/>
			<line class="st2" x1="0" y1="251.171" x2="256" y2="251.171"/>
		</g>
		<g>
			<line class="st2" x1="251.171" y1="0" x2="251.171" y2="256"/>
			<line class="st2" x1="239.44" y1="0" x2="239.44" y2="256"/>
			<line class="st2" x1="227.71" y1="0" x2="227.71" y2="256"/>
			<line class="st2" x1="215.979" y1="0" x2="215.979" y2="256"/>
			<line class="st2" x1="204.249" y1="0" x2="204.249" y2="256"/>
			<line class="st2" x1="192.518" y1="0" x2="192.518" y2="256"/>
			<line class="st2" x1="180.788" y1="0" x2="180.788" y2="256"/>
			<line class="st2" x1="169.057" y1="0" x2="169.057" y2="256"/>
			<line class="st2" x1="157.326" y1="0" x2="157.326" y2="256"/>
			<line class="st2" x1="145.596" y1="0" x2="145.596" y2="256"/>
			<line class="st2" x1="133.865" y1="0" x2="133.865" y2="256"/>
			<line class="st2" x1="122.135" y1="0" x2="122.135" y2="256"/>
			<line class="st2" x1="110.404" y1="0" x2="110.404" y2="256"/>
			<line class="st2" x1="98.674" y1="0" x2="98.674" y2="256"/>
			<line class="st2" x1="86.943" y1="0" x2="86.943" y2="256"/>
			<line class="st2" x1="75.213" y1="0" x2="75.213" y2="256"/>
			<line class="st2" x1="63.482" y1="0" x2="63.482" y2="256"/>
			<line class="st2" x1="51.751" y1="0" x2="51.751" y2="256"/>
			<line class="st2" x1="40.021" y1="0" x2="40.021" y2="256"/>
			<line class="st2" x1="28.29" y1="0" x2="28.29" y2="256"/>
			<line class="st2" x1="16.56" y1="0" x2="16.56" y2="256"/>
			<line class="st2" x1="4.829" y1="0" x2="4.829" y2="256"/>
		</g>
	</g>
</g>
<g id="Layer_1">
	<g>
		<path class="st19" d="M91.2,239.585V201.09h-16.52c-10.685,0-19.348-8.662-19.348-19.348v-27.115
			c-0.419-0.419-0.658-0.658-1.077-1.077H24.147c-5.959,0-9.684-6.451-6.704-11.612l32.234-55.831
			c0.282-0.489,0.506-1.01,0.673-1.55c12.283-39.702,49.424-68.483,93.241-68.142c52.364,0.408,95.274,43.039,96.004,95.4
			c0.489,35.045-17.655,65.884-45.155,83.259v44.512H91.2z"/>
		<path class="st3" d="M194.441,241.085c-0.828,0-1.5-0.672-1.5-1.5v-44.512c0-0.515,0.264-0.993,0.699-1.268
			c28.303-17.882,44.922-48.524,44.455-81.97c-0.717-51.387-43.116-93.52-94.516-93.92c-0.257-0.002-0.514-0.003-0.77-0.003
			c-20.634,0-40.247,6.479-56.77,18.761C69.873,48.692,57.707,65.854,51.783,85c-0.202,0.654-0.474,1.279-0.806,1.855
			l-32.235,55.833c-1.128,1.954-1.128,4.287,0,6.241c1.129,1.954,3.149,3.121,5.405,3.121h30.107c0.397,0,0.778,0.157,1.06,0.439
			l1.078,1.077c0.281,0.281,0.439,0.663,0.439,1.061v27.115c0,9.841,8.007,17.848,17.848,17.848h16.52c0.828,0,1.5,0.672,1.5,1.5
			v38.495c0,0.828-0.672,1.5-1.5,1.5c-0.828,0-1.5-0.672-1.5-1.5V202.59H74.68c-11.495,0-20.848-9.352-20.848-20.848v-26.493
			l-0.198-0.198H24.147c-3.341,0-6.332-1.728-8.003-4.621c-1.671-2.894-1.671-6.349,0-9.241l32.234-55.832
			c0.221-0.383,0.402-0.801,0.539-1.243c6.109-19.749,18.658-37.452,35.333-49.848c17.256-12.827,37.776-19.505,59.353-19.351
			c53.018,0.413,96.753,43.873,97.492,96.879c0.477,34.221-16.386,65.597-45.154,84.102v43.69
			C195.941,240.413,195.27,241.085,194.441,241.085z"/>
		<path class="st11" d="M47.911,26.218c0,0,3.408,12.659,13.222,13.246c0,0-13.1,4.525-13.321,14.202
			c0,0-2.578-13.572-12.925-14.059C34.887,39.608,46.937,37.782,47.911,26.218z"/>
		<path class="st3" d="M47.811,55.166c-0.713,0-1.335-0.506-1.473-1.218c-0.023-0.124-2.494-12.417-11.521-12.843
			c-0.771-0.036-1.388-0.65-1.428-1.421c-0.04-0.77,0.511-1.444,1.273-1.561c0.441-0.068,10.894-1.816,11.754-12.031
			c0.062-0.726,0.635-1.301,1.359-1.367c0.729-0.061,1.394,0.399,1.584,1.102c0.031,0.116,3.259,11.626,11.863,12.141
			c0.714,0.042,1.297,0.583,1.396,1.292c0.098,0.708-0.318,1.388-0.994,1.622c-0.121,0.042-12.118,4.311-12.312,12.819
			c-0.018,0.767-0.611,1.396-1.375,1.46C47.895,55.164,47.853,55.166,47.811,55.166z M40.07,39.437
			c3.878,1.969,6.229,5.746,7.586,8.877c2.026-4.021,5.942-6.787,8.949-8.427c-4.134-1.843-6.783-5.651-8.334-8.723
			C46.479,35.523,43.001,38.032,40.07,39.437z"/>
		<path class="st11" d="M26.212,43.199c0,0,2.411,8.954,9.352,9.369c0,0-9.266,3.201-9.422,10.045c0,0-1.824-9.6-9.142-9.944
			C17,52.669,25.524,51.378,26.212,43.199z"/>
		<path class="st3" d="M26.142,64.113c-0.714,0-1.337-0.507-1.473-1.22c-0.016-0.082-1.704-8.442-7.739-8.727
			c-0.771-0.036-1.388-0.65-1.428-1.421c-0.04-0.77,0.511-1.444,1.273-1.561c0.296-0.047,7.363-1.242,7.942-8.112
			c0.062-0.726,0.636-1.303,1.361-1.368c0.717-0.065,1.392,0.399,1.582,1.101l0,0c0.021,0.079,2.227,7.92,7.993,8.265
			c0.714,0.042,1.299,0.584,1.396,1.293c0.097,0.709-0.32,1.388-0.996,1.622c-0.081,0.028-8.282,2.953-8.412,8.661
			c-0.018,0.768-0.611,1.397-1.376,1.461C26.225,64.111,26.183,64.113,26.142,64.113z M21.622,52.586
			c2.107,1.333,3.523,3.395,4.447,5.28c1.377-2.232,3.515-3.872,5.365-4.973c-2.287-1.269-3.885-3.35-4.941-5.224
			C25.319,49.956,23.478,51.545,21.622,52.586z"/>
		<path class="st11" d="M26.212,16.541c0,0,2.411,8.954,9.352,9.37c0,0-9.266,3.201-9.422,10.045c0,0-1.824-9.6-9.142-9.944
			C17,26.012,25.524,24.721,26.212,16.541z"/>
		<path class="st3" d="M26.142,37.456c-0.714,0-1.337-0.507-1.473-1.22c-0.016-0.082-1.704-8.442-7.739-8.727
			c-0.771-0.036-1.388-0.65-1.428-1.421c-0.04-0.77,0.511-1.444,1.273-1.561c0.296-0.047,7.363-1.242,7.942-8.113
			c0.062-0.726,0.636-1.303,1.361-1.368c0.717-0.062,1.392,0.399,1.582,1.101l0,0c0.021,0.079,2.227,7.92,7.993,8.266
			c0.714,0.043,1.299,0.584,1.396,1.293c0.097,0.709-0.32,1.389-0.997,1.622c-0.08,0.028-8.281,2.952-8.411,8.661
			c-0.018,0.768-0.611,1.397-1.376,1.461C26.225,37.454,26.183,37.456,26.142,37.456z M21.622,25.929
			c2.107,1.332,3.523,3.395,4.447,5.279c1.376-2.232,3.516-3.871,5.365-4.972c-2.288-1.269-3.885-3.351-4.941-5.225
			C25.319,23.299,23.478,24.888,21.622,25.929z"/>
		<path class="st8" d="M87.024,140.01c0.581,1.055,1.18,2.099,1.821,3.115l-1.745,1.746c-2.298,2.298-2.298,6.023,0,8.322
			l10.595,10.595c2.298,2.298,6.024,2.298,8.322,0l1.67-1.67c5.912,3.788,12.519,6.583,19.586,8.159v2.317
			c0,3.25,2.635,5.884,5.884,5.884h14.984c3.25,0,5.884-2.635,5.884-5.884v-2.317c7.067-1.576,13.675-4.371,19.586-8.159l1.671,1.67
			c2.298,2.298,6.024,2.298,8.322,0l10.595-10.595c2.298-2.298,2.298-6.024,0-8.322l-1.745-1.746c3.717-5.9,6.452-12.48,7.98-19.511
			h2.57c3.25,0,5.884-2.635,5.884-5.884v-14.984c0-3.25-2.634-5.884-5.884-5.884h-2.711c-1.589-6.945-4.358-13.441-8.088-19.262
			l1.994-1.995c2.298-2.298,2.298-6.024,0-8.322l-10.595-10.595c-2.298-2.298-6.024-2.298-8.322,0l-2.069,2.069
			c-5.81-3.66-12.278-6.369-19.188-7.91v-2.964c0-3.25-2.635-5.884-5.884-5.884h-14.984c-3.25,0-5.884,2.634-5.884,5.884v2.964
			c-6.91,1.541-13.377,4.25-19.188,7.91l-2.069-2.069c-2.298-2.298-6.024-2.298-8.322,0L87.099,67.283
			c-2.298,2.298-2.298,6.024,0,8.322l1.994,1.995c-3.73,5.821-6.5,12.317-8.088,19.262h-2.711c-3.25,0-5.884,2.634-5.884,5.884
			v14.984c0,3.25,2.634,5.884,5.884,5.884h2.57c0.304,1.396,0.668,2.77,1.065,4.129 M140.649,140.83
			c-16.896,0-30.592-13.697-30.592-30.592c0-16.896,13.697-30.592,30.592-30.592c16.896,0,30.593,13.697,30.593,30.592
			C171.242,127.133,157.545,140.83,140.649,140.83z"/>
		<path class="st3" d="M148.141,179.977h-14.983c-4.072,0-7.385-3.312-7.385-7.385v-1.126c-6.321-1.538-12.322-4.037-17.87-7.443
			l-0.826,0.825c-2.879,2.877-7.563,2.879-10.442,0l-10.595-10.595c-2.879-2.88-2.879-7.564,0-10.443l0.909-0.909
			c-0.396-0.665-0.807-1.382-1.238-2.168c-0.399-0.727-0.134-1.639,0.592-2.037c0.725-0.4,1.639-0.136,2.037,0.592
			c0.634,1.154,1.215,2.148,1.775,3.039c0.373,0.593,0.286,1.364-0.209,1.859l-1.745,1.745c-1.709,1.709-1.709,4.491,0,6.201
			l10.595,10.595c1.71,1.709,4.492,1.709,6.2,0l1.671-1.671c0.497-0.498,1.274-0.583,1.87-0.202
			c5.873,3.763,12.301,6.44,19.103,7.958c0.687,0.152,1.174,0.762,1.174,1.464v2.316c0,2.418,1.967,4.385,4.385,4.385h14.983
			c2.418,0,4.385-1.967,4.385-4.385v-2.316c0-0.702,0.487-1.312,1.174-1.464c6.802-1.518,13.229-4.194,19.103-7.958
			c0.597-0.38,1.374-0.296,1.87,0.202l1.671,1.671c1.708,1.708,4.49,1.709,6.2,0l10.595-10.595c0.828-0.829,1.284-1.93,1.284-3.101
			c0-1.171-0.456-2.272-1.284-3.101l-1.745-1.745c-0.495-0.495-0.582-1.268-0.209-1.86c3.697-5.868,6.315-12.27,7.784-19.03
			c0.149-0.689,0.76-1.182,1.466-1.182h2.57c2.417,0,4.384-1.967,4.384-4.384v-14.984c0-2.417-1.967-4.384-4.384-4.384h-2.711
			c-0.699,0-1.307-0.483-1.462-1.165c-1.529-6.684-4.184-13.005-7.89-18.788c-0.381-0.594-0.296-1.372,0.202-1.87l1.994-1.994
			c0.828-0.828,1.284-1.93,1.284-3.101c0-1.171-0.456-2.271-1.284-3.101l-10.595-10.595c-1.71-1.71-4.492-1.708-6.2,0l-2.069,2.069
			c-0.494,0.496-1.266,0.58-1.86,0.209c-5.774-3.639-12.071-6.234-18.714-7.716c-0.687-0.152-1.174-0.762-1.174-1.464v-2.964
			c0-2.418-1.967-4.385-4.385-4.385h-14.983c-2.418,0-4.385,1.967-4.385,4.385v2.964c0,0.702-0.487,1.312-1.174,1.464
			c-6.643,1.481-12.939,4.077-18.714,7.716c-0.592,0.371-1.366,0.287-1.86-0.209l-2.069-2.069c-1.709-1.709-4.491-1.71-6.2,0
			L88.16,68.343c-1.709,1.71-1.709,4.492,0,6.201l1.994,1.994c0.498,0.498,0.583,1.276,0.202,1.87
			c-3.707,5.786-6.361,12.107-7.889,18.787c-0.155,0.683-0.763,1.166-1.462,1.166h-2.712c-2.417,0-4.384,1.967-4.384,4.384v14.984
			c0,2.417,1.967,4.384,4.384,4.384h2.57c0.706,0,1.315,0.492,1.466,1.182c0.27,1.241,0.61,2.559,1.039,4.027
			c0.232,0.795-0.224,1.628-1.019,1.86c-0.794,0.23-1.628-0.224-1.86-1.019c-0.317-1.083-0.588-2.091-0.82-3.051h-1.376
			c-4.071,0-7.384-3.312-7.384-7.384v-14.984c0-4.071,3.312-7.384,7.384-7.384h1.528c1.542-6.198,4.016-12.091,7.365-17.547
			l-1.148-1.149c-2.879-2.879-2.879-7.563,0-10.443l10.595-10.595c2.88-2.88,7.564-2.878,10.442,0l1.23,1.23
			c5.441-3.284,11.306-5.702,17.466-7.201v-1.773c0-4.072,3.313-7.385,7.385-7.385h14.983c4.072,0,7.385,3.312,7.385,7.385v1.773
			c6.16,1.499,12.024,3.917,17.466,7.201l1.23-1.23c2.878-2.879,7.562-2.88,10.442,0l10.595,10.595
			c1.395,1.396,2.163,3.25,2.163,5.222c0,1.973-0.768,3.827-2.163,5.222l-1.148,1.149c3.35,5.454,5.823,11.346,7.366,17.547h1.527
			c4.071,0,7.384,3.312,7.384,7.384v14.984c0,4.071-3.312,7.384-7.384,7.384h-1.373c-1.491,6.278-3.936,12.252-7.278,17.79
			l0.906,0.906c1.395,1.395,2.163,3.249,2.163,5.222c0,1.972-0.768,3.826-2.163,5.222l-10.595,10.595
			c-2.879,2.88-7.563,2.878-10.442,0l-0.826-0.825c-5.548,3.406-11.549,5.906-17.87,7.443v1.126
			C155.525,176.664,152.213,179.977,148.141,179.977z M140.648,142.33c-17.695,0-32.092-14.396-32.092-32.093
			c0-17.695,14.396-32.092,32.092-32.092c17.696,0,32.093,14.396,32.093,32.092C172.741,127.934,158.345,142.33,140.648,142.33z
			 M140.648,81.146c-16.041,0-29.092,13.051-29.092,29.092c0,16.042,13.051,29.093,29.092,29.093
			c16.042,0,29.093-13.051,29.093-29.093C169.741,94.196,156.69,81.146,140.648,81.146z"/>
		<path class="st9" d="M236.605,44.385h-1.382c-0.81-3.541-2.222-6.853-4.124-9.821l1.017-1.017c1.172-1.172,1.172-3.071,0-4.243
			l-5.402-5.402c-1.172-1.172-3.071-1.172-4.243,0l-1.055,1.055c-2.962-1.866-6.26-3.247-9.783-4.033v-1.511c0-1.657-1.343-3-3-3
			h-7.64c-1.657,0-3,1.343-3,3v1.511c-1.867,0.503-6.821,2.167-9.783,4.033l-1.055-1.055c-1.172-1.172-3.071-1.172-4.243,0
			l-5.402,5.402c-1.172,1.172-1.172,3.071,0,4.243l1.017,1.017c-1.902,2.968-3.314,6.28-4.124,9.821h-1.382c-1.657,0-3,1.343-3,3
			v7.64c0,1.657,1.343,3,3,3h1.31c0.779,3.585,2.174,6.94,4.069,9.948l-0.89,0.89c-1.172,1.172-1.172,3.071,0,4.243l5.402,5.402
			c1.172,1.172,3.071,1.172,4.243,0l0.852-0.852c3.014,1.931,6.383,3.356,9.987,4.16v1.181c0,1.657,1.343,3,3,3h7.64
			c1.657,0,3-1.343,3-3v-1.181c3.603-0.804,6.972-2.229,9.987-4.16l0.852,0.852c1.172,1.172,3.071,1.172,4.243,0l5.402-5.402
			c1.172-1.172,1.172-3.071,0-4.243l-0.89-0.89c1.895-3.008,3.29-6.363,4.069-9.948h1.31c1.657,0,3-1.343,3-3v-7.64
			C239.605,45.728,238.262,44.385,236.605,44.385z M204.812,66.803c-8.615,0-15.598-6.984-15.598-15.598
			c0-8.615,6.984-15.598,15.598-15.598c8.615,0,15.598,6.984,15.598,15.598C220.41,59.82,213.427,66.803,204.812,66.803z"/>
		<path class="st3" d="M208.632,87.498h-7.64c-2.482,0-4.5-2.019-4.5-4.5v-0.001c-2.904-0.762-5.675-1.915-8.264-3.442l-0.016,0.016
			c-0.848,0.849-1.979,1.317-3.181,1.317c-1.202,0-2.333-0.468-3.183-1.318l-5.401-5.402c-1.755-1.755-1.755-4.609,0-6.364
			l0.059-0.059c-1.496-2.579-2.624-5.335-3.363-8.219h-0.124c-2.481,0-4.501-2.019-4.501-4.5v-7.64c0-2.481,2.02-4.501,4.501-4.501
			h0.209c0.762-2.843,1.901-5.558,3.399-8.098l-0.18-0.18c-1.755-1.755-1.755-4.609,0-6.364l5.401-5.402
			c0.85-0.851,1.98-1.318,3.183-1.318c1.202,0,2.333,0.469,3.183,1.318l0.236,0.236c2.667-1.462,6.08-2.667,8.041-3.275v-0.39
			c0-2.481,2.018-4.5,4.5-4.5h7.64c2.481,0,4.5,2.019,4.5,4.5v0.332c2.823,0.74,5.522,1.854,8.054,3.321l0.225-0.225
			c1.753-1.756,4.609-1.757,6.364,0l5.401,5.402c1.755,1.755,1.755,4.609,0,6.364l-0.179,0.18c1.498,2.54,2.638,5.255,3.398,8.098
			h0.21c2.481,0,4.5,2.02,4.5,4.501v7.64c0,2.481-2.019,4.5-4.5,4.5h-0.125c-0.739,2.884-1.867,5.64-3.363,8.219l0.059,0.059
			c1.755,1.755,1.755,4.609,0,6.364l-5.401,5.402c-1.754,1.753-4.61,1.757-6.364,0l-0.015-0.015
			c-2.589,1.527-5.359,2.682-8.264,3.442v0.001C213.132,85.479,211.113,87.498,208.632,87.498z M188.007,76.157
			c0.278,0,0.56,0.078,0.809,0.237c2.923,1.872,6.12,3.204,9.503,3.959c0.686,0.152,1.174,0.762,1.174,1.464v1.181
			c0,0.827,0.673,1.5,1.5,1.5h7.64c0.827,0,1.5-0.673,1.5-1.5v-1.181c0-0.702,0.487-1.312,1.174-1.464
			c3.383-0.755,6.58-2.087,9.505-3.959c0.594-0.38,1.373-0.296,1.869,0.202l0.852,0.851c0.585,0.583,1.535,0.584,2.122,0
			l5.401-5.402c0.585-0.585,0.585-1.537,0-2.122l-0.89-0.89c-0.495-0.495-0.582-1.268-0.209-1.86
			c1.839-2.918,3.142-6.103,3.873-9.467c0.15-0.689,0.76-1.182,1.466-1.182h1.311c0.827,0,1.5-0.673,1.5-1.5v-7.64
			c0-0.828-0.673-1.501-1.5-1.501h-1.383c-0.699,0-1.307-0.483-1.462-1.166c-0.76-3.323-2.081-6.468-3.925-9.346
			c-0.381-0.594-0.296-1.372,0.202-1.87l1.017-1.017c0.585-0.585,0.585-1.537,0-2.122l-5.401-5.402
			c-0.587-0.584-1.537-0.584-2.122,0l-1.056,1.056c-0.494,0.495-1.268,0.58-1.86,0.209c-2.873-1.812-6.006-3.103-9.31-3.839
			c-0.686-0.152-1.174-0.761-1.174-1.464v-1.512c0-0.827-0.673-1.5-1.5-1.5h-7.64c-0.827,0-1.5,0.673-1.5,1.5v1.512
			c0,0.678-0.455,1.273-1.11,1.448c-1.855,0.5-6.589,2.1-9.373,3.854c-0.592,0.371-1.366,0.286-1.86-0.209l-1.056-1.056
			c-0.566-0.566-1.556-0.565-2.122,0l-5.401,5.402c-0.585,0.585-0.585,1.537,0,2.122l1.017,1.017
			c0.498,0.498,0.583,1.276,0.202,1.869c-1.843,2.879-3.164,6.023-3.925,9.348c-0.156,0.682-0.763,1.165-1.462,1.165h-1.382
			c-0.828,0-1.501,0.673-1.501,1.501v7.64c0,0.827,0.673,1.5,1.501,1.5h1.31c0.706,0,1.315,0.492,1.466,1.182
			c0.731,3.363,2.034,6.549,3.873,9.467c0.373,0.593,0.286,1.365-0.209,1.86l-0.89,0.89c-0.585,0.585-0.585,1.537,0,2.122
			l5.401,5.402c0.566,0.566,1.557,0.567,2.121,0l0.855-0.852C187.235,76.307,187.619,76.157,188.007,76.157z M204.812,68.304
			c-9.428,0-17.099-7.671-17.099-17.099c0-9.428,7.671-17.099,17.099-17.099s17.098,7.671,17.098,17.099
			C221.91,60.633,214.24,68.304,204.812,68.304z M204.812,37.106c-7.774,0-14.099,6.324-14.099,14.099s6.324,14.099,14.099,14.099
			c7.773,0,14.098-6.324,14.098-14.099S212.586,37.106,204.812,37.106z"/>
		<path class="st10" d="M218.29,55.338c-1.15,3.75-3.83,6.83-7.3,8.53c-4.72-7.93-10.55-15.12-17.26-21.37
			c1.75-2.23,4.17-3.91,6.94-4.77C207.27,42.819,213.2,48.738,218.29,55.338z"/>
		<path class="st10" d="M144.94,17.938c12.15,0.26,23.78,2.87,34.45,7.37l-2.94,2.93c-0.29,0.29-0.53,0.61-0.72,0.95
			C166.33,23.788,155.95,19.928,144.94,17.938z"/>
		<path class="st10" d="M238.1,111.838c0.46,33.44-16.16,64.08-44.46,81.97c-0.43,0.27-0.7,0.75-0.7,1.26v44.52h-13.5v-44.52
			c27.5-17.37,45.64-48.21,45.16-83.25c-0.15-10.84-2.11-21.27-5.59-30.99c0.81-0.39,1.61-0.81,2.39-1.27l0.01,0.01
			c1.76,1.75,4.61,1.76,6.36,0l2.94-2.94C235.3,87.518,237.92,99.408,238.1,111.838z"/>
	</g>
</g>
</svg>
